# xmcd CD database file
#
# Track frame offsets:
#	150
#	15832
#	30972
#	44420
#	61877
#	85967
#	111335
#	124935
#	162022
#	185017
#	199735
#
# Disc length: 2894 seconds
#
# Revision: 0
# Processed by: cddbd v1.4PL0 Copyright (c) Steve Scherf et al.
# Submitted via: CDex 1.40Release
#
DISCID=870b4c0b
DTITLE=Mokoto Kubota and Sunset Gang - Hawaii Champroo
DYEAR=1975
DGENRE=Blues
TTITLE0=Steel Guitar Rag
TTITLE1=Moonlight Fla
TTITLE2=Walk right In
TTITLE3=Syoka No Kaori
TTITLE4=Haisai Ojisan
TTITLE5=I Love You So
TTITLE6=San Francisco Bay Blues
TTITLE7=ShangHai kaeri
TTITLE8=South Of Boader
TTITLE9=Bye Bye Baby
TTITLE10=Oh,Senorita
EXTD=YEAR: 1975 ID3G: 0
EXTT0=
EXTT1=
EXTT2=
EXTT3=
EXTT4=
EXTT5=
EXTT6=
EXTT7=
EXTT8=
EXTT9=
EXTT10=
PLAYORDER=
